  0
SECTION
  2
HEADER
  9
$ACADVER
  1
AC1006
  9
$EXTMIN
 10
0.000000
 20
0.000000
 30
0.000000
  9
$EXTMAX
 10
1200.000000
 20
1200.000000
 30
0.000000
  0
ENDSEC
  0
SECTION
  2
ENTITIES
  0
POLYLINE
  8
0
 66
1
 70
1
  0
VERTEX
  8
0
 10
130.000000
 20
956.500000
 42
0.000000
  0
VERTEX
  8
0
 10
130.000000
 20
843.000000
 42
0.000000
  0
VERTEX
  8
0
 10
243.500000
 20
843.000000
 42
0.000000
  0
VERTEX
  8
0
 10
357.000000
 20
843.000000
 42
0.000000
  0
VERTEX
  8
0
 10
357.000000
 20
956.500000
 42
0.000000
  0
VERTEX
  8
0
 10
357.000000
 20
1070.000000
 42
0.000000
  0
VERTEX
  8
0
 10
243.500000
 20
1070.000000
 42
0.000000
  0
VERTEX
  8
0
 10
130.000000
 20
1070.000000
 42
0.000000
  0
SEQEND
  0
POLYLINE
  8
0
 66
1
 70
1
  0
VERTEX
  8
0
 10
324.000000
 20
957.000000
 42
0.000000
  0
VERTEX
  8
0
 10
324.000000
 20
876.000000
 42
0.000000
  0
VERTEX
  8
0
 10
243.000000
 20
876.000000
 42
0.000000
  0
VERTEX
  8
0
 10
162.000000
 20
876.000000
 42
0.000000
  0
VERTEX
  8
0
 10
162.000000
 20
957.000000
 42
0.000000
  0
VERTEX
  8
0
 10
162.000000
 20
1038.000000
 42
0.000000
  0
VERTEX
  8
0
 10
243.000000
 20
1038.000000
 42
0.000000
  0
VERTEX
  8
0
 10
324.000000
 20
1038.000000
 42
0.000000
  0
SEQEND
  0
POLYLINE
  8
0
 66
1
 70
1
  0
VERTEX
  8
0
 10
422.000000
 20
1037.500000
 42
0.000000
  0
VERTEX
  8
0
 10
422.000000
 20
1005.000000
 42
0.000000
  0
VERTEX
  8
0
 10
438.000000
 20
1005.000000
 42
0.000000
  0
VERTEX
  8
0
 10
454.000000
 20
1005.000000
 42
0.000000
  0
VERTEX
  8
0
 10
454.000000
 20
989.000000
 42
0.000000
  0
VERTEX
  8
0
 10
454.000000
 20
973.000000
 42
0.000000
  0
VERTEX
  8
0
 10
470.000000
 20
973.000000
 42
0.000000
  0
VERTEX
  8
0
 10
486.000000
 20
973.000000
 42
0.000000
  0
VERTEX
  8
0
 10
486.000000
 20
1005.500000
 42
0.000000
  0
VERTEX
  8
0
 10
486.000000
 20
1038.000000
 42
0.000000
  0
VERTEX
  8
0
 10
502.500000
 20
1038.000000
 42
0.000000
  0
VERTEX
  8
0
 10
519.000000
 20
1038.000000
 42
0.000000
  0
VERTEX
  8
0
 10
519.000000
 20
1054.000000
 42
0.000000
  0
VERTEX
  8
0
 10
519.000000
 20
1070.000000
 42
0.000000
  0
VERTEX
  8
0
 10
502.500000
 20
1070.000000
 42
0.000000
  0
VERTEX
  8
0
 10
486.000000
 20
1070.000000
 42
0.000000
  0
VERTEX
  8
0
 10
486.000000
 20
1054.000000
 42
0.000000
  0
VERTEX
  8
0
 10
486.000000
 20
1038.000000
 42
0.000000
  0
VERTEX
  8
0
 10
470.000000
 20
1038.000000
 42
0.000000
  0
VERTEX
  8
0
 10
454.000000
 20
1038.000000
 42
0.000000
  0
VERTEX
  8
0
 10
454.000000
 20
1054.000000
 42
0.000000
  0
VERTEX
  8
0
 10
454.000000
 20
1070.000000
 42
0.000000
  0
VERTEX
  8
0
 10
438.000000
 20
1070.000000
 42
0.000000
  0
VERTEX
  8
0
 10
422.000000
 20
1070.000000
 42
0.000000
  0
SEQEND
  0
POLYLINE
  8
0
 66
1
 70
1
  0
VERTEX
  8
0
 10
616.236147
 20
1037.750000
 42
0.000000
  0
VERTEX
  8
0
 10
616.500000
 20
1005.500000
 42
0.000000
  0
VERTEX
  8
0
 10
632.750000
 20
1005.225229
 42
0.000000
  0
VERTEX
  8
0
 10
649.000000
 20
1004.950457
 42
0.000000
  0
VERTEX
  8
0
 10
649.000000
 20
988.975229
 42
0.000000
  0
VERTEX
  8
0
 10
649.000000
 20
973.000000
 42
0.000000
  0
VERTEX
  8
0
 10
616.500000
 20
973.000000
 42
0.000000
  0
VERTEX
  8
0
 10
584.000000
 20
973.000000
 42
0.000000
  0
VERTEX
  8
0
 10
584.000000
 20
1005.500000
 42
0.000000
  0
VERTEX
  8
0
 10
584.000000
 20
1038.000000
 42
0.000000
  0
VERTEX
  8
0
 10
567.500000
 20
1038.000000
 42
0.000000
  0
VERTEX
  8
0
 10
551.000000
 20
1038.000000
 42
0.000000
  0
VERTEX
  8
0
 10
551.000000
 20
973.000000
 42
0.000000
  0
VERTEX
  8
0
 10
551.000000
 20
908.000000
 42
0.000000
  0
VERTEX
  8
0
 10
535.024771
 20
908.000000
 42
0.000000
  0
VERTEX
  8
0
 10
519.049543
 20
908.000000
 42
0.000000
  0
VERTEX
  8
0
 10
518.774771
 20
924.250000
 42
0.000000
  0
VERTEX
  8
0
 10
518.500000
 20
940.500000
 42
0.000000
  0
VERTEX
  8
0
 10
502.500000
 20
940.500000
 42
0.000000
  0
VERTEX
  8
0
 10
486.500000
 20
940.500000
 42
0.000000
  0
VERTEX
  8
0
 10
486.500000
 20
924.500000
 42
0.000000
  0
VERTEX
  8
0
 10
486.500000
 20
908.500000
 42
0.000000
  0
VERTEX
  8
0
 10
502.750000
 20
908.225229
 42
0.000000
  0
VERTEX
  8
0
 10
519.000000
 20
907.950457
 42
0.000000
  0
VERTEX
  8
0
 10
519.000000
 20
859.475229
 42
0.000000
  0
VERTEX
  8
0
 10
519.000000
 20
811.000000
 42
0.000000
  0
VERTEX
  8
0
 10
535.000000
 20
811.000000
 42
0.000000
  0
VERTEX
  8
0
 10
551.000000
 20
811.000000
 42
0.000000
  0
VERTEX
  8
0
 10
551.000000
 20
794.500000
 42
0.000000
  0
VERTEX
  8
0
 10
551.000000
 20
778.000000
 42
0.000000
  0
VERTEX
  8
0
 10
535.000000
 20
778.000000
 42
0.000000
  0
VERTEX
  8
0
 10
519.000000
 20
778.000000
 42
0.000000
  0
VERTEX
  8
0
 10
519.000000
 20
762.000000
 42
0.000000
  0
VERTEX
  8
0
 10
519.000000
 20
746.000000
 42
0.000000
  0
VERTEX
  8
0
 10
535.000000
 20
746.000000
 42
0.000000
  0
VERTEX
  8
0
 10
551.000000
 20
746.000000
 42
0.000000
  0
VERTEX
  8
0
 10
551.000000
 20
762.000000
 42
0.000000
  0
VERTEX
  8
0
 10
551.000000
 20
778.000000
 42
0.000000
  0
VERTEX
  8
0
 10
567.500000
 20
778.000000
 42
0.000000
  0
VERTEX
  8
0
 10
584.000000
 20
778.000000
 42
0.000000
  0
VERTEX
  8
0
 10
584.000000
 20
762.000000
 42
0.000000
  0
VERTEX
  8
0
 10
584.000000
 20
746.000000
 42
0.000000
  0
VERTEX
  8
0
 10
600.000000
 20
746.000000
 42
0.000000
  0
VERTEX
  8
0
 10
616.000000
 20
746.000000
 42
0.000000
  0
VERTEX
  8
0
 10
616.000000
 20
778.500000
 42
0.000000
  0
VERTEX
  8
0
 10
616.000000
 20
811.000000
 42
0.000000
  0
VERTEX
  8
0
 10
632.500000
 20
811.000000
 42
0.000000
  0
VERTEX
  8
0
 10
649.000000
 20
811.000000
 42
0.000000
  0
VERTEX
  8
0
 10
649.000000
 20
794.500000
 42
0.000000
  0
VERTEX
  8
0
 10
649.000000
 20
778.000000
 42
0.000000
  0
VERTEX
  8
0
 10
665.000000
 20
778.000000
 42
0.000000
  0
VERTEX
  8
0
 10
681.000000
 20
778.000000
 42
0.000000
  0
VERTEX
  8
0
 10
681.000000
 20
762.000000
 42
0.000000
  0
VERTEX
  8
0
 10
681.000000
 20
746.000000
 42
0.000000
  0
VERTEX
  8
0
 10
665.000000
 20
746.000000
 42
0.000000
  0
VERTEX
  8
0
 10
649.000000
 20
746.000000
 42
0.000000
  0
VERTEX
  8
0
 10
649.000000
 20
730.024771
 42
0.000000
  0
VERTEX
  8
0
 10
649.000000
 20
714.049543
 42
0.000000
  0
VERTEX
  8
0
 10
632.750000
 20
713.774771
 42
0.000000
  0
VERTEX
  8
0
 10
616.500000
 20
713.500000
 42
0.000000
  0
VERTEX
  8
0
 10
616.225229
 20
697.250000
 42
0.000000
  0
VERTEX
  8
0
 10
615.950457
 20
681.000000
 42
0.000000
  0
VERTEX
  8
0
 10
632.475229
 20
681.000000
 42
0.000000
  0
VERTEX
  8
0
 10
649.000000
 20
681.000000
 42
0.000000
  0
VERTEX
  8
0
 10
649.000000
 20
648.500000
 42
0.000000
  0
VERTEX
  8
0
 10
649.000000
 20
616.000000
 42
0.000000
  0
VERTEX
  8
0
 10
665.000000
 20
616.000000
 42
0.000000
  0
VERTEX
  8
0
 10
681.000000
 20
616.000000
 42
0.000000
  0
VERTEX
  8
0
 10
681.000000
 20
600.024771
 42
0.000000
  0
VERTEX
  8
0
 10
681.000000
 20
584.049543
 42
0.000000
  0
VERTEX
  8
0
 10
697.250000
 20
583.774771
 42
0.000000
  0
VERTEX
  8
0
 10
713.500000
 20
583.500000
 42
0.000000
  0
VERTEX
  8
0
 10
713.500000
 20
567.500000
 42
0.000000
  0
VERTEX
  8
0
 10
713.500000
 20
551.500000
 42
0.000000
  0
VERTEX
  8
0
 10
664.750000
 20
551.240487
 42
0.000000
  0
VERTEX
  8
0
 10
616.000000
 20
550.980975
 42
0.000000
  0
VERTEX
  8
0
 10
616.000000
 20
567.490487
 42
0.000000
  0
VERTEX
  8
0
 10
616.000000
 20
584.000000
 42
0.000000
  0
VERTEX
  8
0
 10
600.000000
 20
584.000000
 42
0.000000
  0
VERTEX
  8
0
 10
584.000000
 20
584.000000
 42
0.000000
  0
VERTEX
  8
0
 10
584.000000
 20
600.000000
 42
0.000000
  0
VERTEX
  8
0
 10
584.000000
 20
616.000000
 42
0.000000
  0
VERTEX
  8
0
 10
600.000000
 20
616.000000
 42
0.000000
  0
VERTEX
  8
0
 10
616.000000
 20
616.000000
 42
0.000000
  0
VERTEX
  8
0
 10
616.000000
 20
632.500000
 42
0.000000
  0
VERTEX
  8
0
 10
616.000000
 20
649.000000
 42
0.000000
  0
VERTEX
  8
0
 10
600.000000
 20
649.000000
 42
0.000000
  0
VERTEX
  8
0
 10
584.000000
 20
649.000000
 42
0.000000
  0
VERTEX
  8
0
 10
584.000000
 20
632.500000
 42
0.000000
  0
VERTEX
  8
0
 10
584.000000
 20
616.000000
 42
0.000000
  0
VERTEX
  8
0
 10
567.500000
 20
616.000000
 42
0.000000
  0
VERTEX
  8
0
 10
551.000000
 20
616.000000
 42
0.000000
  0
VERTEX
  8
0
 10
551.000000
 20
567.500000
 42
0.000000
  0
VERTEX
  8
0
 10
551.000000
 20
519.000000
 42
0.000000
  0
VERTEX
  8
0
 10
535.000000
 20
519.000000
 42
0.000000
  0
VERTEX
  8
0
 10
519.000000
 20
519.000000
 42
0.000000
  0
VERTEX
  8
0
 10
519.000000
 20
551.524771
 42
0.000000
  0
VERTEX
  8
0
 10
519.000000
 20
584.049543
 42
0.000000
  0
VERTEX
  8
0
 10
502.750000
 20
583.774771
 42
0.000000
  0
VERTEX
  8
0
 10
486.500000
 20
583.500000
 42
0.000000
  0
VERTEX
  8
0
 10
486.236147
 20
551.250000
 42
0.000000
  0
VERTEX
  8
0
 10
485.972294
 20
519.000000
 42
0.000000
  0
VERTEX
  8
0
 10
469.986147
 20
519.000000
 42
0.000000
  0
VERTEX
  8
0
 10
454.000000
 20
519.000000
 42
0.000000
  0
VERTEX
  8
0
 10
454.000000
 20
551.500000
 42
0.000000
  0
VERTEX
  8
0
 10
454.000000
 20
584.000000
 42
0.000000
  0
VERTEX
  8
0
 10
421.500000
 20
584.000000
 42
0.000000
  0
VERTEX
  8
0
 10
389.000000
 20
584.000000
 42
0.000000
  0
VERTEX
  8
0
 10
389.000000
 20
567.500000
 42
0.000000
  0
VERTEX
  8
0
 10
389.000000
 20
551.000000
 42
0.000000
  0
VERTEX
  8
0
 10
405.500000
 20
551.000000
 42
0.000000
  0
VERTEX
  8
0
 10
422.000000
 20
551.000000
 42
0.000000
  0
VERTEX
  8
0
 10
422.000000
 20
535.000000
 42
0.000000
  0
VERTEX
  8
0
 10
422.000000
 20
519.000000
 42
0.000000
  0
VERTEX
  8
0
 10
438.000000
 20
519.000000
 42
0.000000
  0
VERTEX
  8
0
 10
454.000000
 20
519.000000
 42
0.000000
  0
VERTEX
  8
0
 10
454.000000
 20
502.500000
 42
0.000000
  0
VERTEX
  8
0
 10
454.000000
 20
486.000000
 42
0.000000
  0
VERTEX
  8
0
 10
421.500000
 20
486.000000
 42
0.000000
  0
VERTEX
  8
0
 10
389.000000
 20
486.000000
 42
0.000000
  0
VERTEX
  8
0
 10
389.000000
 20
502.500000
 42
0.000000
  0
VERTEX
  8
0
 10
389.000000
 20
519.000000
 42
0.000000
  0
VERTEX
  8
0
 10
373.000000
 20
519.000000
 42
0.000000
  0
VERTEX
  8
0
 10
357.000000
 20
519.000000
 42
0.000000
  0
VERTEX
  8
0
 10
357.000000
 20
535.000000
 42
0.000000
  0
VERTEX
  8
0
 10
357.000000
 20
551.000000
 42
0.000000
  0
VERTEX
  8
0
 10
340.500000
 20
551.000000
 42
0.000000
  0
VERTEX
  8
0
 10
324.000000
 20
551.000000
 42
0.000000
  0
VERTEX
  8
0
 10
324.000000
 20
567.500000
 42
0.000000
  0
VERTEX
  8
0
 10
324.000000
 20
584.000000
 42
0.000000
  0
VERTEX
  8
0
 10
340.500000
 20
584.000000
 42
0.000000
  0
VERTEX
  8
0
 10
357.000000
 20
584.000000
 42
0.000000
  0
VERTEX
  8
0
 10
357.000000
 20
600.000000
 42
0.000000
  0
VERTEX
  8
0
 10
357.000000
 20
616.000000
 42
0.000000
  0
VERTEX
  8
0
 10
373.000000
 20
616.000000
 42
0.000000
  0
VERTEX
  8
0
 10
389.000000
 20
616.000000
 42
0.000000
  0
VERTEX
  8
0
 10
389.000000
 20
632.524771
 42
0.000000
  0
VERTEX
  8
0
 10
389.000000
 20
649.049543
 42
0.000000
  0
VERTEX
  8
0
 10
405.250000
 20
648.774771
 42
0.000000
  0
VERTEX
  8
0
 10
421.500000
 20
648.500000
 42
0.000000
  0
VERTEX
  8
0
 10
421.774771
 20
632.250000
 42
0.000000
  0
VERTEX
  8
0
 10
422.049543
 20
616.000000
 42
0.000000
  0
VERTEX
  8
0
 10
454.024771
 20
616.000000
 42
0.000000
  0
VERTEX
  8
0
 10
486.000000
 20
616.000000
 42
0.000000
  0
VERTEX
  8
0
 10
486.000000
 20
713.500000
 42
0.000000
  0
VERTEX
  8
0
 10
486.000000
 20
811.000000
 42
0.000000
  0
VERTEX
  8
0
 10
470.000000
 20
811.000000
 42
0.000000
  0
VERTEX
  8
0
 10
454.000000
 20
811.000000
 42
0.000000
  0
VERTEX
  8
0
 10
454.000000
 20
827.000000
 42
0.000000
  0
VERTEX
  8
0
 10
454.000000
 20
843.000000
 42
0.000000
  0
VERTEX
  8
0
 10
470.000000
 20
843.000000
 42
0.000000
  0
VERTEX
  8
0
 10
486.000000
 20
843.000000
 42
0.000000
  0
VERTEX
  8
0
 10
486.000000
 20
859.500000
 42
0.000000
  0
VERTEX
  8
0
 10
486.000000
 20
876.000000
 42
0.000000
  0
VERTEX
  8
0
 10
470.000000
 20
876.000000
 42
0.000000
  0
VERTEX
  8
0
 10
454.000000
 20
876.000000
 42
0.000000
  0
VERTEX
  8
0
 10
454.000000
 20
892.000000
 42
0.000000
  0
VERTEX
  8
0
 10
454.000000
 20
908.000000
 42
0.000000
  0
VERTEX
  8
0
 10
421.500000
 20
908.000000
 42
0.000000
  0
VERTEX
  8
0
 10
389.000000
 20
908.000000
 42
0.000000
  0
VERTEX
  8
0
 10
389.000000
 20
859.500000
 42
0.000000
  0
VERTEX
  8
0
 10
389.000000
 20
811.000000
 42
0.000000
  0
VERTEX
  8
0
 10
405.524771
 20
811.000000
 42
0.000000
  0
VERTEX
  8
0
 10
422.049543
 20
811.000000
 42
0.000000
  0
VERTEX
  8
0
 10
421.774771
 20
794.750000
 42
0.000000
  0
VERTEX
  8
0
 10
421.500000
 20
778.500000
 42
0.000000
  0
VERTEX
  8
0
 10
405.250000
 20
778.225229
 42
0.000000
  0
VERTEX
  8
0
 10
389.000000
 20
777.950457
 42
0.000000
  0
VERTEX
  8
0
 10
389.000000
 20
745.975229
 42
0.000000
  0
VERTEX
  8
0
 10
389.000000
 20
714.000000
 42
0.000000
  0
VERTEX
  8
0
 10
373.000000
 20
714.000000
 42
0.000000
  0
VERTEX
  8
0
 10
357.000000
 20
714.000000
 42
0.000000
  0
VERTEX
  8
0
 10
357.000000
 20
730.000000
 42
0.000000
  0
VERTEX
  8
0
 10
357.000000
 20
746.000000
 42
0.000000
  0
VERTEX
  8
0
 10
340.500000
 20
746.000000
 42
0.000000
  0
VERTEX
  8
0
 10
324.000000
 20
746.000000
 42
0.000000
  0
VERTEX
  8
0
 10
324.000000
 20
761.975229
 42
0.000000
  0
VERTEX
  8
0
 10
324.000000
 20
777.950457
 42
0.000000
  0
VERTEX
  8
0
 10
340.250000
 20
778.225229
 42
0.000000
  0
VERTEX
  8
0
 10
356.500000
 20
778.500000
 42
0.000000
  0
VERTEX
  8
0
 10
356.774771
 20
794.750000
 42
0.000000
  0
VERTEX
  8
0
 10
357.049543
 20
811.000000
 42
0.000000
  0
VERTEX
  8
0
 10
340.524771
 20
811.000000
 42
0.000000
  0
VERTEX
  8
0
 10
324.000000
 20
811.000000
 42
0.000000
  0
VERTEX
  8
0
 10
324.000000
 20
794.500000
 42
0.000000
  0
VERTEX
  8
0
 10
324.000000
 20
778.000000
 42
0.000000
  0
VERTEX
  8
0
 10
291.500000
 20
778.000000
 42
0.000000
  0
VERTEX
  8
0
 10
259.000000
 20
778.000000
 42
0.000000
  0
VERTEX
  8
0
 10
259.000000
 20
762.000000
 42
0.000000
  0
VERTEX
  8
0
 10
259.000000
 20
746.000000
 42
0.000000
  0
VERTEX
  8
0
 10
243.000000
 20
746.000000
 42
0.000000
  0
VERTEX
  8
0
 10
227.000000
 20
746.000000
 42
0.000000
  0
VERTEX
  8
0
 10
227.000000
 20
778.500000
 42
0.000000
  0
VERTEX
  8
0
 10
227.000000
 20
811.000000
 42
0.000000
  0
VERTEX
  8
0
 10
194.500000
 20
811.000000
 42
0.000000
  0
VERTEX
  8
0
 10
162.000000
 20
811.000000
 42
0.000000
  0
VERTEX
  8
0
 10
162.000000
 20
778.500000
 42
0.000000
  0
VERTEX
  8
0
 10
162.000000
 20
746.000000
 42
0.000000
  0
VERTEX
  8
0
 10
194.500000
 20
746.000000
 42
0.000000
  0
VERTEX
  8
0
 10
227.000000
 20
746.000000
 42
0.000000
  0
VERTEX
  8
0
 10
227.000000
 20
730.000000
 42
0.000000
  0
VERTEX
  8
0
 10
227.000000
 20
714.000000
 42
0.000000
  0
VERTEX
  8
0
 10
243.000000
 20
714.000000
 42
0.000000
  0
VERTEX
  8
0
 10
259.000000
 20
714.000000
 42
0.000000
  0
VERTEX
  8
0
 10
259.000000
 20
730.000000
 42
0.000000
  0
VERTEX
  8
0
 10
259.000000
 20
746.000000
 42
0.000000
  0
VERTEX
  8
0
 10
291.500000
 20
746.000000
 42
0.000000
  0
VERTEX
  8
0
 10
324.000000
 20
746.000000
 42
0.000000
  0
VERTEX
  8
0
 10
324.000000
 20
730.000000
 42
0.000000
  0
VERTEX
  8
0
 10
324.000000
 20
714.000000
 42
0.000000
  0
VERTEX
  8
0
 10
340.500000
 20
714.000000
 42
0.000000
  0
VERTEX
  8
0
 10
357.000000
 20
714.000000
 42
0.000000
  0
VERTEX
  8
0
 10
357.000000
 20
697.500000
 42
0.000000
  0
VERTEX
  8
0
 10
357.000000
 20
681.000000
 42
0.000000
  0
VERTEX
  8
0
 10
259.500000
 20
681.000000
 42
0.000000
  0
VERTEX
  8
0
 10
162.000000
 20
681.000000
 42
0.000000
  0
VERTEX
  8
0
 10
162.000000
 20
697.500000
 42
0.000000
  0
VERTEX
  8
0
 10
162.000000
 20
714.000000
 42
0.000000
  0
VERTEX
  8
0
 10
146.000000
 20
714.000000
 42
0.000000
  0
VERTEX
  8
0
 10
130.000000
 20
714.000000
 42
0.000000
  0
VERTEX
  8
0
 10
130.000000
 20
664.986147
 42
0.000000
  0
VERTEX
  8
0
 10
130.000000
 20
615.972294
 42
0.000000
  0
VERTEX
  8
0
 10
162.250000
 20
616.236147
 42
0.000000
  0
VERTEX
  8
0
 10
194.500000
 20
616.500000
 42
0.000000
  0
VERTEX
  8
0
 10
194.774771
 20
632.750000
 42
0.000000
  0
VERTEX
  8
0
 10
195.049543
 20
649.000000
 42
0.000000
  0
VERTEX
  8
0
 10
211.024771
 20
649.000000
 42
0.000000
  0
VERTEX
  8
0
 10
227.000000
 20
649.000000
 42
0.000000
  0
VERTEX
  8
0
 10
227.000000
 20
632.500000
 42
0.000000
  0
VERTEX
  8
0
 10
227.000000
 20
616.000000
 42
0.000000
  0
VERTEX
  8
0
 10
275.500000
 20
616.000000
 42
0.000000
  0
VERTEX
  8
0
 10
324.000000
 20
616.000000
 42
0.000000
  0
VERTEX
  8
0
 10
324.000000
 20
600.000000
 42
0.000000
  0
VERTEX
  8
0
 10
324.000000
 20
584.000000
 42
0.000000
  0
VERTEX
  8
0
 10
275.500000
 20
584.000000
 42
0.000000
  0
VERTEX
  8
0
 10
227.000000
 20
584.000000
 42
0.000000
  0
VERTEX
  8
0
 10
227.000000
 20
567.500000
 42
0.000000
  0
VERTEX
  8
0
 10
227.000000
 20
551.000000
 42
0.000000
  0
VERTEX
  8
0
 10
275.500000
 20
551.000000
 42
0.000000
  0
VERTEX
  8
0
 10
324.000000
 20
551.000000
 42
0.000000
  0
VERTEX
  8
0
 10
324.000000
 20
535.000000
 42
0.000000
  0
VERTEX
  8
0
 10
324.000000
 20
519.000000
 42
0.000000
  0
VERTEX
  8
0
 10
340.500000
 20
519.000000
 42
0.000000
  0
VERTEX
  8
0
 10
357.000000
 20
519.000000
 42
0.000000
  0
VERTEX
  8
0
 10
357.000000
 20
502.500000
 42
0.000000
  0
VERTEX
  8
0
 10
357.000000
 20
486.000000
 42
0.000000
  0
VERTEX
  8
0
 10
324.500000
 20
486.000000
 42
0.000000
  0
VERTEX
  8
0
 10
292.000000
 20
486.000000
 42
0.000000
  0
VERTEX
  8
0
 10
292.000000
 20
502.524771
 42
0.000000
  0
VERTEX
  8
0
 10
292.000000
 20
519.049543
 42
0.000000
  0
VERTEX
  8
0
 10
275.750000
 20
518.774771
 42
0.000000
  0
VERTEX
  8
0
 10
259.500000
 20
518.500000
 42
0.000000
  0
VERTEX
  8
0
 10
259.225108
 20
502.224733
 42
0.000000
  0
VERTEX
  8
0
 10
258.950215
 20
485.949467
 42
0.000000
  0
VERTEX
  8
0
 10
243.225108
 20
486.224733
 42
0.000000
  0
VERTEX
  8
0
 10
227.500000
 20
486.500000
 42
0.000000
  0
VERTEX
  8
0
 10
227.225229
 20
502.750000
 42
0.000000
  0
VERTEX
  8
0
 10
226.950457
 20
519.000000
 42
0.000000
  0
VERTEX
  8
0
 10
210.975229
 20
519.000000
 42
0.000000
  0
VERTEX
  8
0
 10
195.000000
 20
519.000000
 42
0.000000
  0
VERTEX
  8
0
 10
195.000000
 20
535.000000
 42
0.000000
  0
VERTEX
  8
0
 10
195.000000
 20
551.000000
 42
0.000000
  0
VERTEX
  8
0
 10
162.500000
 20
551.000000
 42
0.000000
  0
VERTEX
  8
0
 10
130.000000
 20
551.000000
 42
0.000000
  0
VERTEX
  8
0
 10
130.000000
 20
518.500000
 42
0.000000
  0
VERTEX
  8
0
 10
130.000000
 20
486.000000
 42
0.000000
  0
VERTEX
  8
0
 10
146.000000
 20
486.000000
 42
0.000000
  0
VERTEX
  8
0
 10
162.000000
 20
486.000000
 42
0.000000
  0
VERTEX
  8
0
 10
162.000000
 20
502.500000
 42
0.000000
  0
VERTEX
  8
0
 10
162.000000
 20
519.000000
 42
0.000000
  0
VERTEX
  8
0
 10
178.500000
 20
519.000000
 42
0.000000
  0
VERTEX
  8
0
 10
195.000000
 20
519.000000
 42
0.000000
  0
VERTEX
  8
0
 10
195.000000
 20
486.500000
 42
0.000000
  0
VERTEX
  8
0
 10
195.000000
 20
454.000000
 42
0.000000
  0
VERTEX
  8
0
 10
162.500000
 20
454.000000
 42
0.000000
  0
VERTEX
  8
0
 10
130.000000
 20
454.000000
 42
0.000000
  0
VERTEX
  8
0
 10
130.000000
 20
438.013853
 42
0.000000
  0
VERTEX
  8
0
 10
130.000000
 20
422.027706
 42
0.000000
  0
VERTEX
  8
0
 10
162.250000
 20
421.763853
 42
0.000000
  0
VERTEX
  8
0
 10
194.500000
 20
421.500000
 42
0.000000
  0
VERTEX
  8
0
 10
194.774771
 20
405.250000
 42
0.000000
  0
VERTEX
  8
0
 10
195.049543
 20
389.000000
 42
0.000000
  0
VERTEX
  8
0
 10
211.024771
 20
389.000000
 42
0.000000
  0
VERTEX
  8
0
 10
227.000000
 20
389.000000
 42
0.000000
  0
VERTEX
  8
0
 10
227.000000
 20
421.500000
 42
0.000000
  0
VERTEX
  8
0
 10
227.000000
 20
454.000000
 42
0.000000
  0
VERTEX
  8
0
 10
259.500000
 20
454.000000
 42
0.000000
  0
VERTEX
  8
0
 10
292.000000
 20
454.000000
 42
0.000000
  0
VERTEX
  8
0
 10
292.000000
 20
438.024771
 42
0.000000
  0
VERTEX
  8
0
 10
292.000000
 20
422.049543
 42
0.000000
  0
VERTEX
  8
0
 10
275.750000
 20
421.774771
 42
0.000000
  0
VERTEX
  8
0
 10
259.500000
 20
421.500000
 42
0.000000
  0
VERTEX
  8
0
 10
259.500000
 20
405.500000
 42
0.000000
  0
VERTEX
  8
0
 10
259.500000
 20
389.500000
 42
0.000000
  0
VERTEX
  8
0
 10
324.250000
 20
389.242706
 42
0.000000
  0
VERTEX
  8
0
 10
389.000000
 20
388.985411
 42
0.000000
  0
VERTEX
  8
0
 10
389.000000
 20
372.992706
 42
0.000000
  0
VERTEX
  8
0
 10
389.000000
 20
357.000000
 42
0.000000
  0
VERTEX
  8
0
 10
421.500000
 20
357.000000
 42
0.000000
  0
VERTEX
  8
0
 10
454.000000
 20
357.000000
 42
0.000000
  0
VERTEX
  8
0
 10
454.000000
 20
340.500000
 42
0.000000
  0
VERTEX
  8
0
 10
454.000000
 20
324.000000
 42
0.000000
  0
VERTEX
  8
0
 10
438.000000
 20
324.000000
 42
0.000000
  0
VERTEX
  8
0
 10
422.000000
 20
324.000000
 42
0.000000
  0
VERTEX
  8
0
 10
422.000000
 20
275.500000
 42
0.000000
  0
VERTEX
  8
0
 10
422.000000
 20
227.000000
 42
0.000000
  0
VERTEX
  8
0
 10
405.500000
 20
227.000000
 42
0.000000
  0
VERTEX
  8
0
 10
389.000000
 20
227.000000
 42
0.000000
  0
VERTEX
  8
0
 10
389.000000
 20
194.500000
 42
0.000000
  0
VERTEX
  8
0
 10
389.000000
 20
162.000000
 42
0.000000
  0
VERTEX
  8
0
 10
405.500000
 20
162.000000
 42
0.000000
  0
VERTEX
  8
0
 10
422.000000
 20
162.000000
 42
0.000000
  0
VERTEX
  8
0
 10
422.000000
 20
146.000000
 42
0.000000
  0
VERTEX
  8
0
 10
422.000000
 20
130.000000
 42
0.000000
  0
VERTEX
  8
0
 10
486.486147
 20
130.000000
 42
0.000000
  0
VERTEX
  8
0
 10
550.972294
 20
130.000000
 42
0.000000
  0
VERTEX
  8
0
 10
551.236147
 20
162.250000
 42
0.000000
  0
VERTEX
  8
0
 10
551.500000
 20
194.500000
 42
0.000000
  0
VERTEX
  8
0
 10
567.500000
 20
194.500000
 42
0.000000
  0
VERTEX
  8
0
 10
583.500000
 20
194.500000
 42
0.000000
  0
VERTEX
  8
0
 10
583.774771
 20
178.250000
 42
0.000000
  0
VERTEX
  8
0
 10
584.049543
 20
162.000000
 42
0.000000
  0
VERTEX
  8
0
 10
600.024771
 20
162.000000
 42
0.000000
  0
VERTEX
  8
0
 10
616.000000
 20
162.000000
 42
0.000000
  0
VERTEX
  8
0
 10
616.000000
 20
146.000000
 42
0.000000
  0
VERTEX
  8
0
 10
616.000000
 20
130.000000
 42
0.000000
  0
VERTEX
  8
0
 10
648.500000
 20
130.000000
 42
0.000000
  0
VERTEX
  8
0
 10
681.000000
 20
130.000000
 42
0.000000
  0
VERTEX
  8
0
 10
681.000000
 20
146.000000
 42
0.000000
  0
VERTEX
  8
0
 10
681.000000
 20
162.000000
 42
0.000000
  0
VERTEX
  8
0
 10
648.475229
 20
162.000000
 42
0.000000
  0
VERTEX
  8
0
 10
615.950457
 20
162.000000
 42
0.000000
  0
VERTEX
  8
0
 10
616.225229
 20
178.250000
 42
0.000000
  0
VERTEX
  8
0
 10
616.500000
 20
194.500000
 42
0.000000
  0
VERTEX
  8
0
 10
632.750000
 20
194.774771
 42
0.000000
  0
VERTEX
  8
0
 10
649.000000
 20
195.049543
 42
0.000000
  0
VERTEX
  8
0
 10
649.000000
 20
211.024771
 42
0.000000
  0
VERTEX
  8
0
 10
649.000000
 20
227.000000
 42
0.000000
  0
VERTEX
  8
0
 10
632.500000
 20
227.000000
 42
0.000000
  0
VERTEX
  8
0
 10
616.000000
 20
227.000000
 42
0.000000
  0
VERTEX
  8
0
 10
616.000000
 20
259.500000
 42
0.000000
  0
VERTEX
  8
0
 10
616.000000
 20
292.000000
 42
0.000000
  0
VERTEX
  8
0
 10
632.500000
 20
292.000000
 42
0.000000
  0
VERTEX
  8
0
 10
649.000000
 20
292.000000
 42
0.000000
  0
VERTEX
  8
0
 10
649.000000
 20
324.500000
 42
0.000000
  0
VERTEX
  8
0
 10
649.000000
 20
357.000000
 42
0.000000
  0
VERTEX
  8
0
 10
681.500000
 20
357.000000
 42
0.000000
  0
VERTEX
  8
0
 10
714.000000
 20
357.000000
 42
0.000000
  0
VERTEX
  8
0
 10
714.000000
 20
373.000000
 42
0.000000
  0
VERTEX
  8
0
 10
714.000000
 20
389.000000
 42
0.000000
  0
VERTEX
  8
0
 10
697.500000
 20
389.000000
 42
0.000000
  0
VERTEX
  8
0
 10
681.000000
 20
389.000000
 42
0.000000
  0
VERTEX
  8
0
 10
681.000000
 20
454.024771
 42
0.000000
  0
VERTEX
  8
0
 10
681.000000
 20
519.049543
 42
0.000000
  0
VERTEX
  8
0
 10
697.250000
 20
518.774771
 42
0.000000
  0
VERTEX
  8
0
 10
713.500000
 20
518.500000
 42
0.000000
  0
VERTEX
  8
0
 10
713.774771
 20
502.250000
 42
0.000000
  0
VERTEX
  8
0
 10
714.049543
 20
486.000000
 42
0.000000
  0
VERTEX
  8
0
 10
730.024771
 20
486.000000
 42
0.000000
  0
VERTEX
  8
0
 10
746.000000
 20
486.000000
 42
0.000000
  0
VERTEX
  8
0
 10
746.000000
 20
470.000000
 42
0.000000
  0
VERTEX
  8
0
 10
746.000000
 20
454.000000
 42
0.000000
  0
VERTEX
  8
0
 10
730.000000
 20
454.000000
 42
0.000000
  0
VERTEX
  8
0
 10
714.000000
 20
454.000000
 42
0.000000
  0
VERTEX
  8
0
 10
714.000000
 20
438.000000
 42
0.000000
  0
VERTEX
  8
0
 10
714.000000
 20
422.000000
 42
0.000000
  0
VERTEX
  8
0
 10
730.000000
 20
422.000000
 42
0.000000
  0
VERTEX
  8
0
 10
746.000000
 20
422.000000
 42
0.000000
  0
VERTEX
  8
0
 10
746.000000
 20
405.500000
 42
0.000000
  0
VERTEX
  8
0
 10
746.000000
 20
389.000000
 42
0.000000
  0
VERTEX
  8
0
 10
762.000000
 20
389.000000
 42
0.000000
  0
VERTEX
  8
0
 10
778.000000
 20
389.000000
 42
0.000000
  0
VERTEX
  8
0
 10
778.000000
 20
356.500000
 42
0.000000
  0
VERTEX
  8
0
 10
778.000000
 20
324.000000
 42
0.000000
  0
VERTEX
  8
0
 10
762.000000
 20
324.000000
 42
0.000000
  0
VERTEX
  8
0
 10
746.000000
 20
324.000000
 42
0.000000
  0
VERTEX
  8
0
 10
746.000000
 20
275.500000
 42
0.000000
  0
VERTEX
  8
0
 10
746.000000
 20
227.000000
 42
0.000000
  0
VERTEX
  8
0
 10
730.000000
 20
227.000000
 42
0.000000
  0
VERTEX
  8
0
 10
714.000000
 20
227.000000
 42
0.000000
  0
VERTEX
  8
0
 10
714.000000
 20
275.500000
 42
0.000000
  0
VERTEX
  8
0
 10
714.000000
 20
324.000000
 42
0.000000
  0
VERTEX
  8
0
 10
697.500000
 20
324.000000
 42
0.000000
  0
VERTEX
  8
0
 10
681.000000
 20
324.000000
 42
0.000000
  0
VERTEX
  8
0
 10
681.000000
 20
259.524771
 42
0.000000
  0
VERTEX
  8
0
 10
681.000000
 20
195.049543
 42
0.000000
  0
VERTEX
  8
0
 10
697.250000
 20
194.774771
 42
0.000000
  0
VERTEX
  8
0
 10
713.500000
 20
194.500000
 42
0.000000
  0
VERTEX
  8
0
 10
713.774771
 20
178.250000
 42
0.000000
  0
VERTEX
  8
0
 10
714.049543
 20
162.000000
 42
0.000000
  0
VERTEX
  8
0
 10
730.024771
 20
162.000000
 42
0.000000
  0
VERTEX
  8
0
 10
746.000000
 20
162.000000
 42
0.000000
  0
VERTEX
  8
0
 10
746.000000
 20
194.500000
 42
0.000000
  0
VERTEX
  8
0
 10
746.000000
 20
227.000000
 42
0.000000
  0
VERTEX
  8
0
 10
762.000000
 20
227.000000
 42
0.000000
  0
VERTEX
  8
0
 10
778.000000
 20
227.000000
 42
0.000000
  0
VERTEX
  8
0
 10
778.000000
 20
178.500000
 42
0.000000
  0
VERTEX
  8
0
 10
778.000000
 20
130.000000
 42
0.000000
  0
VERTEX
  8
0
 10
810.500000
 20
130.000000
 42
0.000000
  0
VERTEX
  8
0
 10
843.000000
 20
130.000000
 42
0.000000
  0
VERTEX
  8
0
 10
843.000000
 20
146.000000
 42
0.000000
  0
VERTEX
  8
0
 10
843.000000
 20
162.000000
 42
0.000000
  0
VERTEX
  8
0
 10
827.000000
 20
162.000000
 42
0.000000
  0
VERTEX
  8
0
 10
811.000000
 20
162.000000
 42
0.000000
  0
VERTEX
  8
0
 10
811.000000
 20
178.500000
 42
0.000000
  0
VERTEX
  8
0
 10
811.000000
 20
195.000000
 42
0.000000
  0
VERTEX
  8
0
 10
827.000000
 20
195.000000
 42
0.000000
  0
VERTEX
  8
0
 10
843.000000
 20
195.000000
 42
0.000000
  0
VERTEX
  8
0
 10
843.000000
 20
227.000000
 42
0.000000
  0
VERTEX
  8
0
 10
843.000000
 20
259.000000
 42
0.000000
  0
VERTEX
  8
0
 10
859.500000
 20
259.000000
 42
0.000000
  0
VERTEX
  8
0
 10
876.000000
 20
259.000000
 42
0.000000
  0
VERTEX
  8
0
 10
876.000000
 20
227.000000
 42
0.000000
  0
VERTEX
  8
0
 10
876.000000
 20
195.000000
 42
0.000000
  0
VERTEX
  8
0
 10
908.524771
 20
195.000000
 42
0.000000
  0
VERTEX
  8
0
 10
941.049543
 20
195.000000
 42
0.000000
  0
VERTEX
  8
0
 10
940.774771
 20
178.750000
 42
0.000000
  0
VERTEX
  8
0
 10
940.500000
 20
162.500000
 42
0.000000
  0
VERTEX
  8
0
 10
908.250000
 20
162.236147
 42
0.000000
  0
VERTEX
  8
0
 10
876.000000
 20
161.972294
 42
0.000000
  0
VERTEX
  8
0
 10
876.000000
 20
145.986147
 42
0.000000
  0
VERTEX
  8
0
 10
876.000000
 20
130.000000
 42
0.000000
  0
VERTEX
  8
0
 10
924.500000
 20
130.000000
 42
0.000000
  0
VERTEX
  8
0
 10
973.000000
 20
130.000000
 42
0.000000
  0
VERTEX
  8
0
 10
973.000000
 20
162.500000
 42
0.000000
  0
VERTEX
  8
0
 10
973.000000
 20
195.000000
 42
0.000000
  0
VERTEX
  8
0
 10
1021.500000
 20
195.000000
 42
0.000000
  0
VERTEX
  8
0
 10
1070.000000
 20
195.000000
 42
0.000000
  0
VERTEX
  8
0
 10
1070.000000
 20
211.000000
 42
0.000000
  0
VERTEX
  8
0
 10
1070.000000
 20
227.000000
 42
0.000000
  0
VERTEX
  8
0
 10
1054.000000
 20
227.000000
 42
0.000000
  0
VERTEX
  8
0
 10
1038.000000
 20
227.000000
 42
0.000000
  0
VERTEX
  8
0
 10
1038.000000
 20
275.500000
 42
0.000000
  0
VERTEX
  8
0
 10
1038.000000
 20
324.000000
 42
0.000000
  0
VERTEX
  8
0
 10
1054.000000
 20
324.000000
 42
0.000000
  0
VERTEX
  8
0
 10
1070.000000
 20
324.000000
 42
0.000000
  0
VERTEX
  8
0
 10
1070.000000
 20
356.500000
 42
0.000000
  0
VERTEX
  8
0
 10
1070.000000
 20
389.000000
 42
0.000000
  0
VERTEX
  8
0
 10
1054.000000
 20
389.000000
 42
0.000000
  0
VERTEX
  8
0
 10
1038.000000
 20
389.000000
 42
0.000000
  0
VERTEX
  8
0
 10
1038.000000
 20
421.500000
 42
0.000000
  0
VERTEX
  8
0
 10
1038.000000
 20
454.000000
 42
0.000000
  0
VERTEX
  8
0
 10
1054.000000
 20
454.000000
 42
0.000000
  0
VERTEX
  8
0
 10
1070.000000
 20
454.000000
 42
0.000000
  0
VERTEX
  8
0
 10
1070.000000
 20
502.500000
 42
0.000000
  0
VERTEX
  8
0
 10
1070.000000
 20
551.000000
 42
0.000000
  0
VERTEX
  8
0
 10
1037.500000
 20
551.000000
 42
0.000000
  0
VERTEX
  8
0
 10
1005.000000
 20
551.000000
 42
0.000000
  0
VERTEX
  8
0
 10
1005.000000
 20
535.000000
 42
0.000000
  0
VERTEX
  8
0
 10
1005.000000
 20
519.000000
 42
0.000000
  0
VERTEX
  8
0
 10
1021.500000
 20
519.000000
 42
0.000000
  0
VERTEX
  8
0
 10
1038.000000
 20
519.000000
 42
0.000000
  0
VERTEX
  8
0
 10
1038.000000
 20
486.500000
 42
0.000000
  0
VERTEX
  8
0
 10
1038.000000
 20
454.000000
 42
0.000000
  0
VERTEX
  8
0
 10
1021.500000
 20
454.000000
 42
0.000000
  0
VERTEX
  8
0
 10
1005.000000
 20
454.000000
 42
0.000000
  0
VERTEX
  8
0
 10
1005.000000
 20
470.000000
 42
0.000000
  0
VERTEX
  8
0
 10
1005.000000
 20
486.000000
 42
0.000000
  0
VERTEX
  8
0
 10
989.000000
 20
486.000000
 42
0.000000
  0
VERTEX
  8
0
 10
973.000000
 20
486.000000
 42
0.000000
  0
VERTEX
  8
0
 10
973.000000
 20
502.500000
 42
0.000000
  0
VERTEX
  8
0
 10
973.000000
 20
519.000000
 42
0.000000
  0
VERTEX
  8
0
 10
957.024771
 20
519.000000
 42
0.000000
  0
VERTEX
  8
0
 10
941.049543
 20
519.000000
 42
0.000000
  0
VERTEX
  8
0
 10
940.774771
 20
502.750000
 42
0.000000
  0
VERTEX
  8
0
 10
940.500000
 20
486.500000
 42
0.000000
  0
VERTEX
  8
0
 10
924.250000
 20
486.225229
 42
0.000000
  0
VERTEX
  8
0
 10
908.000000
 20
485.950457
 42
0.000000
  0
VERTEX
  8
0
 10
908.000000
 20
469.975229
 42
0.000000
  0
VERTEX
  8
0
 10
908.000000
 20
454.000000
 42
0.000000
  0
VERTEX
  8
0
 10
924.500000
 20
454.000000
 42
0.000000
  0
VERTEX
  8
0
 10
941.000000
 20
454.000000
 42
0.000000
  0
VERTEX
  8
0
 10
941.000000
 20
438.000000
 42
0.000000
  0
VERTEX
  8
0
 10
941.000000
 20
422.000000
 42
0.000000
  0
VERTEX
  8
0
 10
908.500000
 20
422.000000
 42
0.000000
  0
VERTEX
  8
0
 10
876.000000
 20
422.000000
 42
0.000000
  0
VERTEX
  8
0
 10
876.000000
 20
438.000000
 42
0.000000
  0
VERTEX
  8
0
 10
876.000000
 20
454.000000
 42
0.000000
  0
VERTEX
  8
0
 10
827.000000
 20
454.000000
 42
0.000000
  0
VERTEX
  8
0
 10
778.000000
 20
454.000000
 42
0.000000
  0
VERTEX
  8
0
 10
778.000000
 20
470.000000
 42
0.000000
  0
VERTEX
  8
0
 10
778.000000
 20
486.000000
 42
0.000000
  0
VERTEX
  8
0
 10
762.000000
 20
486.000000
 42
0.000000
  0
VERTEX
  8
0
 10
746.000000
 20
486.000000
 42
0.000000
  0
VERTEX
  8
0
 10
746.000000
 20
518.500000
 42
0.000000
  0
VERTEX
  8
0
 10
746.000000
 20
551.000000
 42
0.000000
  0
VERTEX
  8
0
 10
762.000000
 20
551.000000
 42
0.000000
  0
VERTEX
  8
0
 10
778.000000
 20
551.000000
 42
0.000000
  0
VERTEX
  8
0
 10
778.000000
 20
535.000000
 42
0.000000
  0
VERTEX
  8
0
 10
778.000000
 20
519.000000
 42
0.000000
  0
VERTEX
  8
0
 10
794.500000
 20
519.000000
 42
0.000000
  0
VERTEX
  8
0
 10
811.000000
 20
519.000000
 42
0.000000
  0
VERTEX
  8
0
 10
811.000000
 20
502.486147
 42
0.000000
  0
VERTEX
  8
0
 10
811.000000
 20
485.972294
 42
0.000000
  0
VERTEX
  8
0
 10
843.250000
 20
486.236147
 42
0.000000
  0
VERTEX
  8
0
 10
875.500000
 20
486.500000
 42
0.000000
  0
VERTEX
  8
0
 10
875.774771
 20
502.750000
 42
0.000000
  0
VERTEX
  8
0
 10
876.049543
 20
519.000000
 42
0.000000
  0
VERTEX
  8
0
 10
892.024771
 20
519.000000
 42
0.000000
  0
VERTEX
  8
0
 10
908.000000
 20
519.000000
 42
0.000000
  0
VERTEX
  8
0
 10
908.000000
 20
535.000000
 42
0.000000
  0
VERTEX
  8
0
 10
908.000000
 20
551.000000
 42
0.000000
  0
VERTEX
  8
0
 10
940.500000
 20
551.000000
 42
0.000000
  0
VERTEX
  8
0
 10
973.000000
 20
551.000000
 42
0.000000
  0
VERTEX
  8
0
 10
973.000000
 20
567.500000
 42
0.000000
  0
VERTEX
  8
0
 10
973.000000
 20
584.000000
 42
0.000000
  0
VERTEX
  8
0
 10
989.000000
 20
584.000000
 42
0.000000
  0
VERTEX
  8
0
 10
1005.000000
 20
584.000000
 42
0.000000
  0
VERTEX
  8
0
 10
1005.000000
 20
600.000000
 42
0.000000
  0
VERTEX
  8
0
 10
1005.000000
 20
616.000000
 42
0.000000
  0
VERTEX
  8
0
 10
989.000000
 20
616.000000
 42
0.000000
  0
VERTEX
  8
0
 10
973.000000
 20
616.000000
 42
0.000000
  0
VERTEX
  8
0
 10
973.000000
 20
665.000000
 42
0.000000
  0
VERTEX
  8
0
 10
973.000000
 20
714.000000
 42
0.000000
  0
VERTEX
  8
0
 10
989.000000
 20
714.000000
 42
0.000000
  0
VERTEX
  8
0
 10
1005.000000
 20
714.000000
 42
0.000000
  0
VERTEX
  8
0
 10
1005.000000
 20
730.000000
 42
0.000000
  0
VERTEX
  8
0
 10
1005.000000
 20
746.000000
 42
0.000000
  0
VERTEX
  8
0
 10
1021.500000
 20
746.000000
 42
0.000000
  0
VERTEX
  8
0
 10
1038.000000
 20
746.000000
 42
0.000000
  0
VERTEX
  8
0
 10
1038.000000
 20
730.000000
 42
0.000000
  0
VERTEX
  8
0
 10
1038.000000
 20
714.000000
 42
0.000000
  0
VERTEX
  8
0
 10
1054.000000
 20
714.000000
 42
0.000000
  0
VERTEX
  8
0
 10
1070.000000
 20
714.000000
 42
0.000000
  0
VERTEX
  8
0
 10
1070.000000
 20
746.000000
 42
0.000000
  0
VERTEX
  8
0
 10
1070.000000
 20
778.000000
 42
0.000000
  0
VERTEX
  8
0
 10
1037.500000
 20
778.000000
 42
0.000000
  0
VERTEX
  8
0
 10
1005.000000
 20
778.000000
 42
0.000000
  0
VERTEX
  8
0
 10
1005.000000
 20
762.000000
 42
0.000000
  0
VERTEX
  8
0
 10
1005.000000
 20
746.000000
 42
0.000000
  0
VERTEX
  8
0
 10
989.000000
 20
746.000000
 42
0.000000
  0
VERTEX
  8
0
 10
973.000000
 20
746.000000
 42
0.000000
  0
VERTEX
  8
0
 10
973.000000
 20
778.500000
 42
0.000000
  0
VERTEX
  8
0
 10
973.000000
 20
811.000000
 42
0.000000
  0
VERTEX
  8
0
 10
957.000000
 20
811.000000
 42
0.000000
  0
VERTEX
  8
0
 10
941.000000
 20
811.000000
 42
0.000000
  0
VERTEX
  8
0
 10
941.000000
 20
778.500000
 42
0.000000
  0
VERTEX
  8
0
 10
941.000000
 20
746.000000
 42
0.000000
  0
VERTEX
  8
0
 10
957.000000
 20
746.000000
 42
0.000000
  0
VERTEX
  8
0
 10
973.000000
 20
746.000000
 42
0.000000
  0
VERTEX
  8
0
 10
973.000000
 20
730.000000
 42
0.000000
  0
VERTEX
  8
0
 10
973.000000
 20
714.000000
 42
0.000000
  0
VERTEX
  8
0
 10
940.500000
 20
714.000000
 42
0.000000
  0
VERTEX
  8
0
 10
908.000000
 20
714.000000
 42
0.000000
  0
VERTEX
  8
0
 10
908.000000
 20
762.500000
 42
0.000000
  0
VERTEX
  8
0
 10
908.000000
 20
811.000000
 42
0.000000
  0
VERTEX
  8
0
 10
875.500000
 20
811.000000
 42
0.000000
  0
VERTEX
  8
0
 10
843.000000
 20
811.000000
 42
0.000000
  0
VERTEX
  8
0
 10
843.000000
 20
778.500000
 42
0.000000
  0
VERTEX
  8
0
 10
843.000000
 20
746.000000
 42
0.000000
  0
VERTEX
  8
0
 10
859.500000
 20
746.000000
 42
0.000000
  0
VERTEX
  8
0
 10
876.000000
 20
746.000000
 42
0.000000
  0
VERTEX
  8
0
 10
876.000000
 20
730.000000
 42
0.000000
  0
VERTEX
  8
0
 10
876.000000
 20
714.000000
 42
0.000000
  0
VERTEX
  8
0
 10
843.500000
 20
714.000000
 42
0.000000
  0
VERTEX
  8
0
 10
811.000000
 20
714.000000
 42
0.000000
  0
VERTEX
  8
0
 10
811.000000
 20
795.024771
 42
0.000000
  0
VERTEX
  8
0
 10
811.000000
 20
876.049543
 42
0.000000
  0
VERTEX
  8
0
 10
794.750000
 20
875.774771
 42
0.000000
  0
VERTEX
  8
0
 10
778.500000
 20
875.500000
 42
0.000000
  0
VERTEX
  8
0
 10
778.225229
 20
859.250000
 42
0.000000
  0
VERTEX
  8
0
 10
777.950457
 20
843.000000
 42
0.000000
  0
VERTEX
  8
0
 10
761.975229
 20
843.000000
 42
0.000000
  0
VERTEX
  8
0
 10
746.000000
 20
843.000000
 42
0.000000
  0
VERTEX
  8
0
 10
746.000000
 20
892.000000
 42
0.000000
  0
VERTEX
  8
0
 10
746.000000
 20
941.000000
 42
0.000000
  0
VERTEX
  8
0
 10
730.000000
 20
941.000000
 42
0.000000
  0
VERTEX
  8
0
 10
714.000000
 20
941.000000
 42
0.000000
  0
VERTEX
  8
0
 10
714.000000
 20
973.000000
 42
0.000000
  0
VERTEX
  8
0
 10
714.000000
 20
1005.000000
 42
0.000000
  0
VERTEX
  8
0
 10
730.000000
 20
1005.000000
 42
0.000000
  0
VERTEX
  8
0
 10
746.000000
 20
1005.000000
 42
0.000000
  0
VERTEX
  8
0
 10
746.000000
 20
989.000000
 42
0.000000
  0
VERTEX
  8
0
 10
746.000000
 20
973.000000
 42
0.000000
  0
VERTEX
  8
0
 10
778.500000
 20
973.000000
 42
0.000000
  0
VERTEX
  8
0
 10
811.000000
 20
973.000000
 42
0.000000
  0
VERTEX
  8
0
 10
811.000000
 20
1021.500000
 42
0.000000
  0
VERTEX
  8
0
 10
811.000000
 20
1070.000000
 42
0.000000
  0
VERTEX
  8
0
 10
778.500000
 20
1070.000000
 42
0.000000
  0
VERTEX
  8
0
 10
746.000000
 20
1070.000000
 42
0.000000
  0
VERTEX
  8
0
 10
746.000000
 20
1054.000000
 42
0.000000
  0
VERTEX
  8
0
 10
746.000000
 20
1038.000000
 42
0.000000
  0
VERTEX
  8
0
 10
730.000000
 20
1038.000000
 42
0.000000
  0
VERTEX
  8
0
 10
714.000000
 20
1038.000000
 42
0.000000
  0
VERTEX
  8
0
 10
714.000000
 20
1021.500000
 42
0.000000
  0
VERTEX
  8
0
 10
714.000000
 20
1005.000000
 42
0.000000
  0
VERTEX
  8
0
 10
681.500000
 20
1005.000000
 42
0.000000
  0
VERTEX
  8
0
 10
649.000000
 20
1005.000000
 42
0.000000
  0
VERTEX
  8
0
 10
649.000000
 20
1021.500000
 42
0.000000
  0
VERTEX
  8
0
 10
649.000000
 20
1038.000000
 42
0.000000
  0
VERTEX
  8
0
 10
665.000000
 20
1038.000000
 42
0.000000
  0
VERTEX
  8
0
 10
681.000000
 20
1038.000000
 42
0.000000
  0
VERTEX
  8
0
 10
681.000000
 20
1054.000000
 42
0.000000
  0
VERTEX
  8
0
 10
681.000000
 20
1070.000000
 42
0.000000
  0
VERTEX
  8
0
 10
648.486147
 20
1070.000000
 42
0.000000
  0
VERTEX
  8
0
 10
615.972294
 20
1070.000000
 42
0.000000
  0
SEQEND
  0
POLYLINE
  8
0
 66
1
 70
1
  0
VERTEX
  8
0
 10
778.000000
 20
1021.500000
 42
0.000000
  0
VERTEX
  8
0
 10
778.000000
 20
1005.000000
 42
0.000000
  0
VERTEX
  8
0
 10
762.000000
 20
1005.000000
 42
0.000000
  0
VERTEX
  8
0
 10
746.000000
 20
1005.000000
 42
0.000000
  0
VERTEX
  8
0
 10
746.000000
 20
1021.500000
 42
0.000000
  0
VERTEX
  8
0
 10
746.000000
 20
1038.000000
 42
0.000000
  0
VERTEX
  8
0
 10
762.000000
 20
1038.000000
 42
0.000000
  0
VERTEX
  8
0
 10
778.000000
 20
1038.000000
 42
0.000000
  0
SEQEND
  0
POLYLINE
  8
0
 66
1
 70
1
  0
VERTEX
  8
0
 10
681.000000
 20
957.000000
 42
0.000000
  0
VERTEX
  8
0
 10
681.000000
 20
941.000000
 42
0.000000
  0
VERTEX
  8
0
 10
697.524771
 20
941.000000
 42
0.000000
  0
VERTEX
  8
0
 10
714.049543
 20
941.000000
 42
0.000000
  0
VERTEX
  8
0
 10
713.774771
 20
924.750000
 42
0.000000
  0
VERTEX
  8
0
 10
713.500000
 20
908.500000
 42
0.000000
  0
VERTEX
  8
0
 10
697.250000
 20
908.225229
 42
0.000000
  0
VERTEX
  8
0
 10
681.000000
 20
907.950457
 42
0.000000
  0
VERTEX
  8
0
 10
681.000000
 20
924.475229
 42
0.000000
  0
VERTEX
  8
0
 10
681.000000
 20
941.000000
 42
0.000000
  0
VERTEX
  8
0
 10
665.000000
 20
941.000000
 42
0.000000
  0
VERTEX
  8
0
 10
649.000000
 20
941.000000
 42
0.000000
  0
VERTEX
  8
0
 10
649.000000
 20
892.000000
 42
0.000000
  0
VERTEX
  8
0
 10
649.000000
 20
843.000000
 42
0.000000
  0
VERTEX
  8
0
 10
665.000000
 20
843.000000
 42
0.000000
  0
VERTEX
  8
0
 10
681.000000
 20
843.000000
 42
0.000000
  0
VERTEX
  8
0
 10
681.000000
 20
859.524771
 42
0.000000
  0
VERTEX
  8
0
 10
681.000000
 20
876.049543
 42
0.000000
  0
VERTEX
  8
0
 10
697.250000
 20
875.774771
 42
0.000000
  0
VERTEX
  8
0
 10
713.500000
 20
875.500000
 42
0.000000
  0
VERTEX
  8
0
 10
713.774771
 20
859.250000
 42
0.000000
  0
VERTEX
  8
0
 10
714.049543
 20
843.000000
 42
0.000000
  0
VERTEX
  8
0
 10
730.024771
 20
843.000000
 42
0.000000
  0
VERTEX
  8
0
 10
746.000000
 20
843.000000
 42
0.000000
  0
VERTEX
  8
0
 10
746.000000
 20
827.000000
 42
0.000000
  0
VERTEX
  8
0
 10
746.000000
 20
811.000000
 42
0.000000
  0
VERTEX
  8
0
 10
762.000000
 20
811.000000
 42
0.000000
  0
VERTEX
  8
0
 10
778.000000
 20
811.000000
 42
0.000000
  0
VERTEX
  8
0
 10
778.000000
 20
762.500000
 42
0.000000
  0
VERTEX
  8
0
 10
778.000000
 20
714.000000
 42
0.000000
  0
VERTEX
  8
0
 10
762.000000
 20
714.000000
 42
0.000000
  0
VERTEX
  8
0
 10
746.000000
 20
714.000000
 42
0.000000
  0
VERTEX
  8
0
 10
746.000000
 20
697.500000
 42
0.000000
  0
VERTEX
  8
0
 10
746.000000
 20
681.000000
 42
0.000000
  0
VERTEX
  8
0
 10
762.000000
 20
681.000000
 42
0.000000
  0
VERTEX
  8
0
 10
778.000000
 20
681.000000
 42
0.000000
  0
VERTEX
  8
0
 10
778.000000
 20
665.000000
 42
0.000000
  0
VERTEX
  8
0
 10
778.000000
 20
649.000000
 42
0.000000
  0
VERTEX
  8
0
 10
810.500000
 20
649.000000
 42
0.000000
  0
VERTEX
  8
0
 10
843.000000
 20
649.000000
 42
0.000000
  0
VERTEX
  8
0
 10
843.000000
 20
632.500000
 42
0.000000
  0
VERTEX
  8
0
 10
843.000000
 20
616.000000
 42
0.000000
  0
VERTEX
  8
0
 10
859.500000
 20
616.000000
 42
0.000000
  0
VERTEX
  8
0
 10
876.000000
 20
616.000000
 42
0.000000
  0
VERTEX
  8
0
 10
876.000000
 20
632.500000
 42
0.000000
  0
VERTEX
  8
0
 10
876.000000
 20
649.000000
 42
0.000000
  0
VERTEX
  8
0
 10
892.000000
 20
649.000000
 42
0.000000
  0
VERTEX
  8
0
 10
908.000000
 20
649.000000
 42
0.000000
  0
VERTEX
  8
0
 10
908.000000
 20
665.000000
 42
0.000000
  0
VERTEX
  8
0
 10
908.000000
 20
681.000000
 42
0.000000
  0
VERTEX
  8
0
 10
924.500000
 20
681.000000
 42
0.000000
  0
VERTEX
  8
0
 10
941.000000
 20
681.000000
 42
0.000000
  0
VERTEX
  8
0
 10
941.000000
 20
632.500000
 42
0.000000
  0
VERTEX
  8
0
 10
941.000000
 20
584.000000
 42
0.000000
  0
VERTEX
  8
0
 10
924.500000
 20
584.000000
 42
0.000000
  0
VERTEX
  8
0
 10
908.000000
 20
584.000000
 42
0.000000
  0
VERTEX
  8
0
 10
908.000000
 20
567.500000
 42
0.000000
  0
VERTEX
  8
0
 10
908.000000
 20
551.000000
 42
0.000000
  0
VERTEX
  8
0
 10
892.000000
 20
551.000000
 42
0.000000
  0
VERTEX
  8
0
 10
876.000000
 20
551.000000
 42
0.000000
  0
VERTEX
  8
0
 10
876.000000
 20
567.500000
 42
0.000000
  0
VERTEX
  8
0
 10
876.000000
 20
584.000000
 42
0.000000
  0
VERTEX
  8
0
 10
843.500000
 20
584.000000
 42
0.000000
  0
VERTEX
  8
0
 10
811.000000
 20
584.000000
 42
0.000000
  0
VERTEX
  8
0
 10
811.000000
 20
599.975229
 42
0.000000
  0
VERTEX
  8
0
 10
811.000000
 20
615.950457
 42
0.000000
  0
VERTEX
  8
0
 10
794.750000
 20
616.225229
 42
0.000000
  0
VERTEX
  8
0
 10
778.500000
 20
616.500000
 42
0.000000
  0
VERTEX
  8
0
 10
778.225229
 20
632.750000
 42
0.000000
  0
VERTEX
  8
0
 10
777.950457
 20
649.000000
 42
0.000000
  0
VERTEX
  8
0
 10
746.000000
 20
649.000000
 42
0.000000
  0
VERTEX
  8
0
 10
714.049543
 20
649.000000
 42
0.000000
  0
VERTEX
  8
0
 10
713.774771
 20
632.750000
 42
0.000000
  0
VERTEX
  8
0
 10
713.500000
 20
616.500000
 42
0.000000
  0
VERTEX
  8
0
 10
697.250000
 20
616.225229
 42
0.000000
  0
VERTEX
  8
0
 10
681.000000
 20
615.950457
 42
0.000000
  0
VERTEX
  8
0
 10
681.000000
 20
648.475229
 42
0.000000
  0
VERTEX
  8
0
 10
681.000000
 20
681.000000
 42
0.000000
  0
VERTEX
  8
0
 10
665.000000
 20
681.000000
 42
0.000000
  0
VERTEX
  8
0
 10
649.000000
 20
681.000000
 42
0.000000
  0
VERTEX
  8
0
 10
649.000000
 20
697.500000
 42
0.000000
  0
VERTEX
  8
0
 10
649.000000
 20
714.000000
 42
0.000000
  0
VERTEX
  8
0
 10
665.000000
 20
714.000000
 42
0.000000
  0
VERTEX
  8
0
 10
681.000000
 20
714.000000
 42
0.000000
  0
VERTEX
  8
0
 10
681.000000
 20
730.000000
 42
0.000000
  0
VERTEX
  8
0
 10
681.000000
 20
746.000000
 42
0.000000
  0
VERTEX
  8
0
 10
697.500000
 20
746.000000
 42
0.000000
  0
VERTEX
  8
0
 10
714.000000
 20
746.000000
 42
0.000000
  0
VERTEX
  8
0
 10
714.000000
 20
794.500000
 42
0.000000
  0
VERTEX
  8
0
 10
714.000000
 20
843.000000
 42
0.000000
  0
VERTEX
  8
0
 10
697.500000
 20
843.000000
 42
0.000000
  0
VERTEX
  8
0
 10
681.000000
 20
843.000000
 42
0.000000
  0
VERTEX
  8
0
 10
681.000000
 20
827.000000
 42
0.000000
  0
VERTEX
  8
0
 10
681.000000
 20
811.000000
 42
0.000000
  0
VERTEX
  8
0
 10
665.000000
 20
811.000000
 42
0.000000
  0
VERTEX
  8
0
 10
649.000000
 20
811.000000
 42
0.000000
  0
VERTEX
  8
0
 10
649.000000
 20
827.000000
 42
0.000000
  0
VERTEX
  8
0
 10
649.000000
 20
843.000000
 42
0.000000
  0
VERTEX
  8
0
 10
632.490487
 20
843.000000
 42
0.000000
  0
VERTEX
  8
0
 10
615.980975
 20
843.000000
 42
0.000000
  0
VERTEX
  8
0
 10
616.240487
 20
891.750000
 42
0.000000
  0
VERTEX
  8
0
 10
616.500000
 20
940.500000
 42
0.000000
  0
VERTEX
  8
0
 10
632.750000
 20
940.774771
 42
0.000000
  0
VERTEX
  8
0
 10
649.000000
 20
941.049543
 42
0.000000
  0
VERTEX
  8
0
 10
649.000000
 20
957.024771
 42
0.000000
  0
VERTEX
  8
0
 10
649.000000
 20
973.000000
 42
0.000000
  0
VERTEX
  8
0
 10
665.000000
 20
973.000000
 42
0.000000
  0
VERTEX
  8
0
 10
681.000000
 20
973.000000
 42
0.000000
  0
SEQEND
  0
POLYLINE
  8
0
 66
1
 70
1
  0
VERTEX
  8
0
 10
584.000000
 20
875.475229
 42
0.000000
  0
VERTEX
  8
0
 10
584.000000
 20
842.950457
 42
0.000000
  0
VERTEX
  8
0
 10
567.750000
 20
843.225229
 42
0.000000
  0
VERTEX
  8
0
 10
551.500000
 20
843.500000
 42
0.000000
  0
VERTEX
  8
0
 10
551.236147
 20
875.750000
 42
0.000000
  0
VERTEX
  8
0
 10
550.972294
 20
908.000000
 42
0.000000
  0
VERTEX
  8
0
 10
567.486147
 20
908.000000
 42
0.000000
  0
VERTEX
  8
0
 10
584.000000
 20
908.000000
 42
0.000000
  0
SEQEND
  0
POLYLINE
  8
0
 66
1
 70
1
  0
VERTEX
  8
0
 10
454.000000
 20
859.500000
 42
0.000000
  0
VERTEX
  8
0
 10
454.000000
 20
843.000000
 42
0.000000
  0
VERTEX
  8
0
 10
438.000000
 20
843.000000
 42
0.000000
  0
VERTEX
  8
0
 10
422.000000
 20
843.000000
 42
0.000000
  0
VERTEX
  8
0
 10
422.000000
 20
859.500000
 42
0.000000
  0
VERTEX
  8
0
 10
422.000000
 20
876.000000
 42
0.000000
  0
VERTEX
  8
0
 10
438.000000
 20
876.000000
 42
0.000000
  0
VERTEX
  8
0
 10
454.000000
 20
876.000000
 42
0.000000
  0
SEQEND
  0
POLYLINE
  8
0
 66
1
 70
1
  0
VERTEX
  8
0
 10
454.000000
 20
697.500000
 42
0.000000
  0
VERTEX
  8
0
 10
454.000000
 20
681.000000
 42
0.000000
  0
VERTEX
  8
0
 10
438.000000
 20
681.000000
 42
0.000000
  0
VERTEX
  8
0
 10
422.000000
 20
681.000000
 42
0.000000
  0
VERTEX
  8
0
 10
422.000000
 20
697.500000
 42
0.000000
  0
VERTEX
  8
0
 10
422.000000
 20
714.000000
 42
0.000000
  0
VERTEX
  8
0
 10
438.000000
 20
714.000000
 42
0.000000
  0
VERTEX
  8
0
 10
454.000000
 20
714.000000
 42
0.000000
  0
SEQEND
  0
POLYLINE
  8
0
 66
1
 70
1
  0
VERTEX
  8
0
 10
389.000000
 20
665.000000
 42
0.000000
  0
VERTEX
  8
0
 10
389.000000
 20
649.000000
 42
0.000000
  0
VERTEX
  8
0
 10
373.000000
 20
649.000000
 42
0.000000
  0
VERTEX
  8
0
 10
357.000000
 20
649.000000
 42
0.000000
  0
VERTEX
  8
0
 10
357.000000
 20
632.500000
 42
0.000000
  0
VERTEX
  8
0
 10
357.000000
 20
616.000000
 42
0.000000
  0
VERTEX
  8
0
 10
340.475229
 20
616.000000
 42
0.000000
  0
VERTEX
  8
0
 10
323.950457
 20
616.000000
 42
0.000000
  0
VERTEX
  8
0
 10
324.225229
 20
632.250000
 42
0.000000
  0
VERTEX
  8
0
 10
324.500000
 20
648.500000
 42
0.000000
  0
VERTEX
  8
0
 10
340.750000
 20
648.774771
 42
0.000000
  0
VERTEX
  8
0
 10
357.000000
 20
649.049543
 42
0.000000
  0
VERTEX
  8
0
 10
357.000000
 20
665.024771
 42
0.000000
  0
VERTEX
  8
0
 10
357.000000
 20
681.000000
 42
0.000000
  0
VERTEX
  8
0
 10
373.000000
 20
681.000000
 42
0.000000
  0
VERTEX
  8
0
 10
389.000000
 20
681.000000
 42
0.000000
  0
SEQEND
  0
POLYLINE
  8
0
 66
1
 70
1
  0
VERTEX
  8
0
 10
843.000000
 20
535.000000
 42
0.000000
  0
VERTEX
  8
0
 10
843.000000
 20
519.000000
 42
0.000000
  0
VERTEX
  8
0
 10
827.000000
 20
519.000000
 42
0.000000
  0
VERTEX
  8
0
 10
811.000000
 20
519.000000
 42
0.000000
  0
VERTEX
  8
0
 10
811.000000
 20
535.000000
 42
0.000000
  0
VERTEX
  8
0
 10
811.000000
 20
551.000000
 42
0.000000
  0
VERTEX
  8
0
 10
827.000000
 20
551.000000
 42
0.000000
  0
VERTEX
  8
0
 10
843.000000
 20
551.000000
 42
0.000000
  0
SEQEND
  0
POLYLINE
  8
0
 66
1
 70
1
  0
VERTEX
  8
0
 10
649.000000
 20
486.500000
 42
0.000000
  0
VERTEX
  8
0
 10
649.000000
 20
454.000000
 42
0.000000
  0
VERTEX
  8
0
 10
632.500000
 20
454.000000
 42
0.000000
  0
VERTEX
  8
0
 10
616.000000
 20
454.000000
 42
0.000000
  0
VERTEX
  8
0
 10
616.000000
 20
470.000000
 42
0.000000
  0
VERTEX
  8
0
 10
616.000000
 20
486.000000
 42
0.000000
  0
VERTEX
  8
0
 10
600.000000
 20
486.000000
 42
0.000000
  0
VERTEX
  8
0
 10
584.000000
 20
486.000000
 42
0.000000
  0
VERTEX
  8
0
 10
584.000000
 20
502.500000
 42
0.000000
  0
VERTEX
  8
0
 10
584.000000
 20
519.000000
 42
0.000000
  0
VERTEX
  8
0
 10
616.500000
 20
519.000000
 42
0.000000
  0
VERTEX
  8
0
 10
649.000000
 20
519.000000
 42
0.000000
  0
SEQEND
  0
POLYLINE
  8
0
 66
1
 70
1
  0
VERTEX
  8
0
 10
389.000000
 20
470.000000
 42
0.000000
  0
VERTEX
  8
0
 10
389.000000
 20
454.000000
 42
0.000000
  0
VERTEX
  8
0
 10
405.500000
 20
454.000000
 42
0.000000
  0
VERTEX
  8
0
 10
422.000000
 20
454.000000
 42
0.000000
  0
VERTEX
  8
0
 10
422.000000
 20
438.000000
 42
0.000000
  0
VERTEX
  8
0
 10
422.000000
 20
422.000000
 42
0.000000
  0
VERTEX
  8
0
 10
438.000000
 20
422.000000
 42
0.000000
  0
VERTEX
  8
0
 10
454.000000
 20
422.000000
 42
0.000000
  0
VERTEX
  8
0
 10
454.000000
 20
405.500000
 42
0.000000
  0
VERTEX
  8
0
 10
454.000000
 20
389.000000
 42
0.000000
  0
VERTEX
  8
0
 10
469.975229
 20
389.000000
 42
0.000000
  0
VERTEX
  8
0
 10
485.950457
 20
389.000000
 42
0.000000
  0
VERTEX
  8
0
 10
486.225229
 20
405.250000
 42
0.000000
  0
VERTEX
  8
0
 10
486.500000
 20
421.500000
 42
0.000000
  0
VERTEX
  8
0
 10
502.750000
 20
421.774771
 42
0.000000
  0
VERTEX
  8
0
 10
519.000000
 20
422.049543
 42
0.000000
  0
VERTEX
  8
0
 10
519.000000
 20
405.524771
 42
0.000000
  0
VERTEX
  8
0
 10
519.000000
 20
389.000000
 42
0.000000
  0
VERTEX
  8
0
 10
551.500000
 20
389.000000
 42
0.000000
  0
VERTEX
  8
0
 10
584.000000
 20
389.000000
 42
0.000000
  0
VERTEX
  8
0
 10
584.000000
 20
405.500000
 42
0.000000
  0
VERTEX
  8
0
 10
584.000000
 20
422.000000
 42
0.000000
  0
VERTEX
  8
0
 10
567.500000
 20
422.000000
 42
0.000000
  0
VERTEX
  8
0
 10
551.000000
 20
422.000000
 42
0.000000
  0
VERTEX
  8
0
 10
551.000000
 20
438.000000
 42
0.000000
  0
VERTEX
  8
0
 10
551.000000
 20
454.000000
 42
0.000000
  0
VERTEX
  8
0
 10
567.500000
 20
454.000000
 42
0.000000
  0
VERTEX
  8
0
 10
584.000000
 20
454.000000
 42
0.000000
  0
VERTEX
  8
0
 10
584.000000
 20
438.013853
 42
0.000000
  0
VERTEX
  8
0
 10
584.000000
 20
422.027706
 42
0.000000
  0
VERTEX
  8
0
 10
616.250000
 20
421.763853
 42
0.000000
  0
VERTEX
  8
0
 10
648.500000
 20
421.500000
 42
0.000000
  0
VERTEX
  8
0
 10
648.774771
 20
405.250000
 42
0.000000
  0
VERTEX
  8
0
 10
649.049543
 20
389.000000
 42
0.000000
  0
VERTEX
  8
0
 10
616.524771
 20
389.000000
 42
0.000000
  0
VERTEX
  8
0
 10
584.000000
 20
389.000000
 42
0.000000
  0
VERTEX
  8
0
 10
584.000000
 20
373.000000
 42
0.000000
  0
VERTEX
  8
0
 10
584.000000
 20
357.000000
 42
0.000000
  0
VERTEX
  8
0
 10
519.000000
 20
357.000000
 42
0.000000
  0
VERTEX
  8
0
 10
454.000000
 20
357.000000
 42
0.000000
  0
VERTEX
  8
0
 10
454.000000
 20
373.000000
 42
0.000000
  0
VERTEX
  8
0
 10
454.000000
 20
389.000000
 42
0.000000
  0
VERTEX
  8
0
 10
438.000000
 20
389.000000
 42
0.000000
  0
VERTEX
  8
0
 10
422.000000
 20
389.000000
 42
0.000000
  0
VERTEX
  8
0
 10
422.000000
 20
405.500000
 42
0.000000
  0
VERTEX
  8
0
 10
422.000000
 20
422.000000
 42
0.000000
  0
VERTEX
  8
0
 10
405.500000
 20
422.000000
 42
0.000000
  0
VERTEX
  8
0
 10
389.000000
 20
422.000000
 42
0.000000
  0
VERTEX
  8
0
 10
389.000000
 20
438.000000
 42
0.000000
  0
VERTEX
  8
0
 10
389.000000
 20
454.000000
 42
0.000000
  0
VERTEX
  8
0
 10
373.000000
 20
454.000000
 42
0.000000
  0
VERTEX
  8
0
 10
357.000000
 20
454.000000
 42
0.000000
  0
VERTEX
  8
0
 10
357.000000
 20
438.000000
 42
0.000000
  0
VERTEX
  8
0
 10
357.000000
 20
422.000000
 42
0.000000
  0
VERTEX
  8
0
 10
340.500000
 20
422.000000
 42
0.000000
  0
VERTEX
  8
0
 10
324.000000
 20
422.000000
 42
0.000000
  0
VERTEX
  8
0
 10
324.000000
 20
438.000000
 42
0.000000
  0
VERTEX
  8
0
 10
324.000000
 20
454.000000
 42
0.000000
  0
VERTEX
  8
0
 10
340.500000
 20
454.000000
 42
0.000000
  0
VERTEX
  8
0
 10
357.000000
 20
454.000000
 42
0.000000
  0
VERTEX
  8
0
 10
357.000000
 20
470.000000
 42
0.000000
  0
VERTEX
  8
0
 10
357.000000
 20
486.000000
 42
0.000000
  0
VERTEX
  8
0
 10
373.000000
 20
486.000000
 42
0.000000
  0
VERTEX
  8
0
 10
389.000000
 20
486.000000
 42
0.000000
  0
SEQEND
  0
POLYLINE
  8
0
 66
1
 70
1
  0
VERTEX
  8
0
 10
486.000000
 20
470.000000
 42
0.000000
  0
VERTEX
  8
0
 10
486.000000
 20
454.000000
 42
0.000000
  0
VERTEX
  8
0
 10
470.000000
 20
454.000000
 42
0.000000
  0
VERTEX
  8
0
 10
454.000000
 20
454.000000
 42
0.000000
  0
VERTEX
  8
0
 10
454.000000
 20
470.000000
 42
0.000000
  0
VERTEX
  8
0
 10
454.000000
 20
486.000000
 42
0.000000
  0
VERTEX
  8
0
 10
470.000000
 20
486.000000
 42
0.000000
  0
VERTEX
  8
0
 10
486.000000
 20
486.000000
 42
0.000000
  0
SEQEND
  0
POLYLINE
  8
0
 66
1
 70
1
  0
VERTEX
  8
0
 10
1005.000000
 20
405.500000
 42
0.000000
  0
VERTEX
  8
0
 10
1005.000000
 20
357.000000
 42
0.000000
  0
VERTEX
  8
0
 10
1021.500000
 20
357.000000
 42
0.000000
  0
VERTEX
  8
0
 10
1038.000000
 20
357.000000
 42
0.000000
  0
VERTEX
  8
0
 10
1038.000000
 20
340.500000
 42
0.000000
  0
VERTEX
  8
0
 10
1038.000000
 20
324.000000
 42
0.000000
  0
VERTEX
  8
0
 10
1021.500000
 20
324.000000
 42
0.000000
  0
VERTEX
  8
0
 10
1005.000000
 20
324.000000
 42
0.000000
  0
VERTEX
  8
0
 10
1005.000000
 20
291.500000
 42
0.000000
  0
VERTEX
  8
0
 10
1005.000000
 20
259.000000
 42
0.000000
  0
VERTEX
  8
0
 10
989.000000
 20
259.000000
 42
0.000000
  0
VERTEX
  8
0
 10
973.000000
 20
259.000000
 42
0.000000
  0
VERTEX
  8
0
 10
973.000000
 20
227.000000
 42
0.000000
  0
VERTEX
  8
0
 10
973.000000
 20
195.000000
 42
0.000000
  0
VERTEX
  8
0
 10
957.000000
 20
195.000000
 42
0.000000
  0
VERTEX
  8
0
 10
941.000000
 20
195.000000
 42
0.000000
  0
VERTEX
  8
0
 10
941.000000
 20
243.500000
 42
0.000000
  0
VERTEX
  8
0
 10
941.000000
 20
292.000000
 42
0.000000
  0
VERTEX
  8
0
 10
957.000000
 20
292.000000
 42
0.000000
  0
VERTEX
  8
0
 10
973.000000
 20
292.000000
 42
0.000000
  0
VERTEX
  8
0
 10
973.000000
 20
308.000000
 42
0.000000
  0
VERTEX
  8
0
 10
973.000000
 20
324.000000
 42
0.000000
  0
VERTEX
  8
0
 10
989.000000
 20
324.000000
 42
0.000000
  0
VERTEX
  8
0
 10
1005.000000
 20
324.000000
 42
0.000000
  0
VERTEX
  8
0
 10
1005.000000
 20
340.500000
 42
0.000000
  0
VERTEX
  8
0
 10
1005.000000
 20
357.000000
 42
0.000000
  0
VERTEX
  8
0
 10
989.000000
 20
357.000000
 42
0.000000
  0
VERTEX
  8
0
 10
973.000000
 20
357.000000
 42
0.000000
  0
VERTEX
  8
0
 10
973.000000
 20
405.500000
 42
0.000000
  0
VERTEX
  8
0
 10
973.000000
 20
454.000000
 42
0.000000
  0
VERTEX
  8
0
 10
989.000000
 20
454.000000
 42
0.000000
  0
VERTEX
  8
0
 10
1005.000000
 20
454.000000
 42
0.000000
  0
SEQEND
  0
POLYLINE
  8
0
 66
1
 70
1
  0
VERTEX
  8
0
 10
908.000000
 20
340.500000
 42
0.000000
  0
VERTEX
  8
0
 10
908.000000
 20
292.000000
 42
0.000000
  0
VERTEX
  8
0
 10
859.500000
 20
292.000000
 42
0.000000
  0
VERTEX
  8
0
 10
811.000000
 20
292.000000
 42
0.000000
  0
VERTEX
  8
0
 10
811.000000
 20
340.500000
 42
0.000000
  0
VERTEX
  8
0
 10
811.000000
 20
389.000000
 42
0.000000
  0
VERTEX
  8
0
 10
859.500000
 20
389.000000
 42
0.000000
  0
VERTEX
  8
0
 10
908.000000
 20
389.000000
 42
0.000000
  0
SEQEND
  0
POLYLINE
  8
0
 66
1
 70
1
  0
VERTEX
  8
0
 10
551.000000
 20
275.500000
 42
0.000000
  0
VERTEX
  8
0
 10
551.000000
 20
227.000000
 42
0.000000
  0
VERTEX
  8
0
 10
535.000000
 20
227.000000
 42
0.000000
  0
VERTEX
  8
0
 10
519.000000
 20
227.000000
 42
0.000000
  0
VERTEX
  8
0
 10
519.000000
 20
194.500000
 42
0.000000
  0
VERTEX
  8
0
 10
519.000000
 20
162.000000
 42
0.000000
  0
VERTEX
  8
0
 10
486.500000
 20
162.000000
 42
0.000000
  0
VERTEX
  8
0
 10
454.000000
 20
162.000000
 42
0.000000
  0
VERTEX
  8
0
 10
454.000000
 20
178.500000
 42
0.000000
  0
VERTEX
  8
0
 10
454.000000
 20
195.000000
 42
0.000000
  0
VERTEX
  8
0
 10
438.000000
 20
195.000000
 42
0.000000
  0
VERTEX
  8
0
 10
422.000000
 20
195.000000
 42
0.000000
  0
VERTEX
  8
0
 10
422.000000
 20
211.000000
 42
0.000000
  0
VERTEX
  8
0
 10
422.000000
 20
227.000000
 42
0.000000
  0
VERTEX
  8
0
 10
438.000000
 20
227.000000
 42
0.000000
  0
VERTEX
  8
0
 10
454.000000
 20
227.000000
 42
0.000000
  0
VERTEX
  8
0
 10
454.000000
 20
242.986147
 42
0.000000
  0
VERTEX
  8
0
 10
454.000000
 20
258.972294
 42
0.000000
  0
VERTEX
  8
0
 10
486.250000
 20
259.236147
 42
0.000000
  0
VERTEX
  8
0
 10
518.500000
 20
259.500000
 42
0.000000
  0
VERTEX
  8
0
 10
518.774771
 20
275.750000
 42
0.000000
  0
VERTEX
  8
0
 10
519.049543
 20
292.000000
 42
0.000000
  0
VERTEX
  8
0
 10
502.524771
 20
292.000000
 42
0.000000
  0
VERTEX
  8
0
 10
486.000000
 20
292.000000
 42
0.000000
  0
VERTEX
  8
0
 10
486.000000
 20
308.000000
 42
0.000000
  0
VERTEX
  8
0
 10
486.000000
 20
324.000000
 42
0.000000
  0
VERTEX
  8
0
 10
518.500000
 20
324.000000
 42
0.000000
  0
VERTEX
  8
0
 10
551.000000
 20
324.000000
 42
0.000000
  0
SEQEND
  0
POLYLINE
  8
0
 66
1
 70
1
  0
VERTEX
  8
0
 10
616.000000
 20
308.000000
 42
0.000000
  0
VERTEX
  8
0
 10
616.000000
 20
292.000000
 42
0.000000
  0
VERTEX
  8
0
 10
600.000000
 20
292.000000
 42
0.000000
  0
VERTEX
  8
0
 10
584.000000
 20
292.000000
 42
0.000000
  0
VERTEX
  8
0
 10
584.000000
 20
308.000000
 42
0.000000
  0
VERTEX
  8
0
 10
584.000000
 20
324.000000
 42
0.000000
  0
VERTEX
  8
0
 10
600.000000
 20
324.000000
 42
0.000000
  0
VERTEX
  8
0
 10
616.000000
 20
324.000000
 42
0.000000
  0
SEQEND
  0
POLYLINE
  8
0
 66
1
 70
1
  0
VERTEX
  8
0
 10
811.000000
 20
243.000000
 42
0.000000
  0
VERTEX
  8
0
 10
811.000000
 20
227.000000
 42
0.000000
  0
VERTEX
  8
0
 10
794.500000
 20
227.000000
 42
0.000000
  0
VERTEX
  8
0
 10
778.000000
 20
227.000000
 42
0.000000
  0
VERTEX
  8
0
 10
778.000000
 20
243.000000
 42
0.000000
  0
VERTEX
  8
0
 10
778.000000
 20
259.000000
 42
0.000000
  0
VERTEX
  8
0
 10
794.500000
 20
259.000000
 42
0.000000
  0
VERTEX
  8
0
 10
811.000000
 20
259.000000
 42
0.000000
  0
SEQEND
  0
POLYLINE
  8
0
 66
1
 70
1
  0
VERTEX
  8
0
 10
843.000000
 20
956.500000
 42
0.000000
  0
VERTEX
  8
0
 10
843.000000
 20
843.000000
 42
0.000000
  0
VERTEX
  8
0
 10
956.500000
 20
843.000000
 42
0.000000
  0
VERTEX
  8
0
 10
1070.000000
 20
843.000000
 42
0.000000
  0
VERTEX
  8
0
 10
1070.000000
 20
956.500000
 42
0.000000
  0
VERTEX
  8
0
 10
1070.000000
 20
1070.000000
 42
0.000000
  0
VERTEX
  8
0
 10
956.500000
 20
1070.000000
 42
0.000000
  0
VERTEX
  8
0
 10
843.000000
 20
1070.000000
 42
0.000000
  0
SEQEND
  0
POLYLINE
  8
0
 66
1
 70
1
  0
VERTEX
  8
0
 10
1038.000000
 20
957.000000
 42
0.000000
  0
VERTEX
  8
0
 10
1038.000000
 20
876.000000
 42
0.000000
  0
VERTEX
  8
0
 10
957.000000
 20
876.000000
 42
0.000000
  0
VERTEX
  8
0
 10
876.000000
 20
876.000000
 42
0.000000
  0
VERTEX
  8
0
 10
876.000000
 20
957.000000
 42
0.000000
  0
VERTEX
  8
0
 10
876.000000
 20
1038.000000
 42
0.000000
  0
VERTEX
  8
0
 10
957.000000
 20
1038.000000
 42
0.000000
  0
VERTEX
  8
0
 10
1038.000000
 20
1038.000000
 42
0.000000
  0
SEQEND
  0
POLYLINE
  8
0
 66
1
 70
1
  0
VERTEX
  8
0
 10
389.000000
 20
957.000000
 42
0.000000
  0
VERTEX
  8
0
 10
389.000000
 20
941.000000
 42
0.000000
  0
VERTEX
  8
0
 10
405.500000
 20
941.000000
 42
0.000000
  0
VERTEX
  8
0
 10
422.000000
 20
941.000000
 42
0.000000
  0
VERTEX
  8
0
 10
422.000000
 20
957.000000
 42
0.000000
  0
VERTEX
  8
0
 10
422.000000
 20
973.000000
 42
0.000000
  0
VERTEX
  8
0
 10
405.500000
 20
973.000000
 42
0.000000
  0
VERTEX
  8
0
 10
389.000000
 20
973.000000
 42
0.000000
  0
SEQEND
  0
POLYLINE
  8
0
 66
1
 70
1
  0
VERTEX
  8
0
 10
1005.000000
 20
665.000000
 42
0.000000
  0
VERTEX
  8
0
 10
1005.000000
 20
649.000000
 42
0.000000
  0
VERTEX
  8
0
 10
1021.500000
 20
649.000000
 42
0.000000
  0
VERTEX
  8
0
 10
1038.000000
 20
649.000000
 42
0.000000
  0
VERTEX
  8
0
 10
1038.000000
 20
616.500000
 42
0.000000
  0
VERTEX
  8
0
 10
1038.000000
 20
584.000000
 42
0.000000
  0
VERTEX
  8
0
 10
1054.000000
 20
584.000000
 42
0.000000
  0
VERTEX
  8
0
 10
1070.000000
 20
584.000000
 42
0.000000
  0
VERTEX
  8
0
 10
1070.000000
 20
616.500000
 42
0.000000
  0
VERTEX
  8
0
 10
1070.000000
 20
649.000000
 42
0.000000
  0
VERTEX
  8
0
 10
1054.000000
 20
649.000000
 42
0.000000
  0
VERTEX
  8
0
 10
1038.000000
 20
649.000000
 42
0.000000
  0
VERTEX
  8
0
 10
1038.000000
 20
665.000000
 42
0.000000
  0
VERTEX
  8
0
 10
1038.000000
 20
681.000000
 42
0.000000
  0
VERTEX
  8
0
 10
1021.500000
 20
681.000000
 42
0.000000
  0
VERTEX
  8
0
 10
1005.000000
 20
681.000000
 42
0.000000
  0
SEQEND
  0
POLYLINE
  8
0
 66
1
 70
1
  0
VERTEX
  8
0
 10
130.000000
 20
243.500000
 42
0.000000
  0
VERTEX
  8
0
 10
130.000000
 20
130.000000
 42
0.000000
  0
VERTEX
  8
0
 10
243.500000
 20
130.000000
 42
0.000000
  0
VERTEX
  8
0
 10
357.000000
 20
130.000000
 42
0.000000
  0
VERTEX
  8
0
 10
357.000000
 20
243.500000
 42
0.000000
  0
VERTEX
  8
0
 10
357.000000
 20
357.000000
 42
0.000000
  0
VERTEX
  8
0
 10
243.500000
 20
357.000000
 42
0.000000
  0
VERTEX
  8
0
 10
130.000000
 20
357.000000
 42
0.000000
  0
SEQEND
  0
POLYLINE
  8
0
 66
1
 70
1
  0
VERTEX
  8
0
 10
324.000000
 20
243.000000
 42
0.000000
  0
VERTEX
  8
0
 10
324.000000
 20
162.000000
 42
0.000000
  0
VERTEX
  8
0
 10
243.000000
 20
162.000000
 42
0.000000
  0
VERTEX
  8
0
 10
162.000000
 20
162.000000
 42
0.000000
  0
VERTEX
  8
0
 10
162.000000
 20
243.000000
 42
0.000000
  0
VERTEX
  8
0
 10
162.000000
 20
324.000000
 42
0.000000
  0
VERTEX
  8
0
 10
243.000000
 20
324.000000
 42
0.000000
  0
VERTEX
  8
0
 10
324.000000
 20
324.000000
 42
0.000000
  0
SEQEND
  0
POLYLINE
  8
0
 66
1
 70
1
  0
VERTEX
  8
0
 10
1038.000000
 20
146.000000
 42
0.000000
  0
VERTEX
  8
0
 10
1038.000000
 20
130.000000
 42
0.000000
  0
VERTEX
  8
0
 10
1054.000000
 20
130.000000
 42
0.000000
  0
VERTEX
  8
0
 10
1070.000000
 20
130.000000
 42
0.000000
  0
VERTEX
  8
0
 10
1070.000000
 20
146.000000
 42
0.000000
  0
VERTEX
  8
0
 10
1070.000000
 20
162.000000
 42
0.000000
  0
VERTEX
  8
0
 10
1054.000000
 20
162.000000
 42
0.000000
  0
VERTEX
  8
0
 10
1038.000000
 20
162.000000
 42
0.000000
  0
SEQEND
  0
POLYLINE
  8
0
 66
1
 70
1
  0
VERTEX
  8
0
 10
195.000000
 20
956.500000
 42
0.000000
  0
VERTEX
  8
0
 10
195.000000
 20
908.000000
 42
0.000000
  0
VERTEX
  8
0
 10
243.500000
 20
908.000000
 42
0.000000
  0
VERTEX
  8
0
 10
292.000000
 20
908.000000
 42
0.000000
  0
VERTEX
  8
0
 10
292.000000
 20
956.500000
 42
0.000000
  0
VERTEX
  8
0
 10
292.000000
 20
1005.000000
 42
0.000000
  0
VERTEX
  8
0
 10
243.500000
 20
1005.000000
 42
0.000000
  0
VERTEX
  8
0
 10
195.000000
 20
1005.000000
 42
0.000000
  0
SEQEND
  0
POLYLINE
  8
0
 66
1
 70
1
  0
VERTEX
  8
0
 10
876.000000
 20
600.000000
 42
0.000000
  0
VERTEX
  8
0
 10
876.000000
 20
584.000000
 42
0.000000
  0
VERTEX
  8
0
 10
892.000000
 20
584.000000
 42
0.000000
  0
VERTEX
  8
0
 10
908.000000
 20
584.000000
 42
0.000000
  0
VERTEX
  8
0
 10
908.000000
 20
600.000000
 42
0.000000
  0
VERTEX
  8
0
 10
908.000000
 20
616.000000
 42
0.000000
  0
VERTEX
  8
0
 10
892.000000
 20
616.000000
 42
0.000000
  0
VERTEX
  8
0
 10
876.000000
 20
616.000000
 42
0.000000
  0
SEQEND
  0
POLYLINE
  8
0
 66
1
 70
1
  0
VERTEX
  8
0
 10
843.000000
 20
340.475229
 42
0.000000
  0
VERTEX
  8
0
 10
843.000000
 20
323.950457
 42
0.000000
  0
VERTEX
  8
0
 10
859.250000
 20
324.225229
 42
0.000000
  0
VERTEX
  8
0
 10
875.500000
 20
324.500000
 42
0.000000
  0
VERTEX
  8
0
 10
875.774771
 20
340.750000
 42
0.000000
  0
VERTEX
  8
0
 10
876.049543
 20
357.000000
 42
0.000000
  0
VERTEX
  8
0
 10
859.524771
 20
357.000000
 42
0.000000
  0
VERTEX
  8
0
 10
843.000000
 20
357.000000
 42
0.000000
  0
SEQEND
  0
POLYLINE
  8
0
 66
1
 70
1
  0
VERTEX
  8
0
 10
908.000000
 20
956.500000
 42
0.000000
  0
VERTEX
  8
0
 10
908.000000
 20
908.000000
 42
0.000000
  0
VERTEX
  8
0
 10
956.500000
 20
908.000000
 42
0.000000
  0
VERTEX
  8
0
 10
1005.000000
 20
908.000000
 42
0.000000
  0
VERTEX
  8
0
 10
1005.000000
 20
956.500000
 42
0.000000
  0
VERTEX
  8
0
 10
1005.000000
 20
1005.000000
 42
0.000000
  0
VERTEX
  8
0
 10
956.500000
 20
1005.000000
 42
0.000000
  0
VERTEX
  8
0
 10
908.000000
 20
1005.000000
 42
0.000000
  0
SEQEND
  0
POLYLINE
  8
0
 66
1
 70
1
  0
VERTEX
  8
0
 10
195.000000
 20
243.500000
 42
0.000000
  0
VERTEX
  8
0
 10
195.000000
 20
195.000000
 42
0.000000
  0
VERTEX
  8
0
 10
243.500000
 20
195.000000
 42
0.000000
  0
VERTEX
  8
0
 10
292.000000
 20
195.000000
 42
0.000000
  0
VERTEX
  8
0
 10
292.000000
 20
243.500000
 42
0.000000
  0
VERTEX
  8
0
 10
292.000000
 20
292.000000
 42
0.000000
  0
VERTEX
  8
0
 10
243.500000
 20
292.000000
 42
0.000000
  0
VERTEX
  8
0
 10
195.000000
 20
292.000000
 42
0.000000
  0
SEQEND
  0
ENDSEC
  0
EOF
